<svg width="441" height="560" viewBox="0 0 441 560" fill="none" xmlns="http://www.w3.org/2000/svg">
<path d="M64.8592 528.747L440.999 0.000105519L349.417 12.5763L0.436523 503.144L64.8592 528.747Z" fill="white"/>
<path d="M440.999 0.000105519L91.6923 0L69.9111 27.0333L48.9365 54.0665H402.661L415.681 34.0619L440.999 0.000105519Z" fill="white"/>
<path d="M228.018 184.457C344.455 201.478 432.318 278.151 432.318 370.164C432.318 474.674 318.967 559.397 179.142 559.397C109.168 559.397 45.8253 538.179 0 503.883L36.502 452.571C69.2808 484.641 120.978 505.331 179.142 505.331C278.218 505.331 358.536 445.299 358.536 371.246C358.536 300.035 284.265 241.791 190.464 237.425V237.248L228.018 184.457Z" fill="#E31A28"/>
</svg>
